<svg width="118" height="128" fill="none" xmlns="http://www.w3.org/2000/svg"><g filter="url(#filter0_d)"><path d="M54 15.887a10 10 0 0110 0l28.971 16.726a10 10 0 015 8.66v33.453a10 10 0 01-5 8.66L64 100.114a9.997 9.997 0 01-10 0L25.029 83.387a10 10 0 01-5-8.66V41.273a10 10 0 015-8.66L54 15.887z" fill="#fff"/></g><path d="M44 66.5l-.5 8-.5 1 1-.5v-1h3l3 1c2.333.667 7.4 2 9 2 1.6 0 2.667-.667 3-1l11-8v-1.5L71 65l-8 4-1.5-1H57l-1-.5-3-2c-.333-.167-1.3-.5-2.5-.5s-3.5.667-4.5 1h-2l-1-1.5 1 2z" fill="#D9D8E4"/><path d="M59.5 63.5H63l.5-1.5v-5.5c.5-.167 1.7-.7 2.5-1.5 1-1 1.5-3.5 1.5-4s0-1-.5-3c-.4-1.6-2.167-2.667-3-3l-.5 1v5c0 1-1 1.5-2.5 1.5-1.2 0-1.833-1.333-2-2V46l-.5-1-1.5 1c-.667.833-2 2.8-2 4 0 1.5.5 2.5 1 4 .4 1.2 2.167 2.167 3 2.5v4l.5 3z" fill="#5FA9FF"/><path d="M72.677 47.968h-.405c-.24-.842-.575-1.65-1-2.413l.288-.289c.33-.33.511-.769.511-1.237 0-.47-.181-.909-.511-1.239l-1.92-1.918a1.735 1.735 0 00-1.24-.514c-.47 0-.91.183-1.238.513l-.288.288a11.272 11.272 0 00-2.413-1.002v-.406c0-.965-.786-1.751-1.751-1.751h-2.715c-.966 0-1.751.786-1.751 1.751v.406c-.841.24-1.65.575-2.416 1.002l-.286-.287a1.735 1.735 0 00-1.24-.514c-.47 0-.91.183-1.237.513l-1.92 1.92c-.33.33-.511.769-.511 1.238 0 .468.181.908.51 1.237l.289.289a11.255 11.255 0 00-1 2.413h-.408c-.965 0-1.751.785-1.751 1.75v2.718c0 .966.785 1.751 1.751 1.751h.407c.238.84.573 1.647 1 2.413l-.287.289c-.33.33-.512.769-.512 1.237 0 .469.182.909.512 1.238l1.918 1.919c.33.331.77.514 1.24.514.469 0 .909-.183 1.237-.513l.288-.288c.767.428 1.575.763 2.415 1.001v.407c0 .965.786 1.751 1.752 1.751h2.715c.965 0 1.75-.786 1.75-1.751v-.407a11.19 11.19 0 002.414-1l.286.286c.33.331.77.514 1.24.514s.91-.183 1.237-.512l1.923-1.92c.33-.33.51-.77.51-1.239 0-.468-.18-.908-.51-1.237l-.288-.289a11.32 11.32 0 001-2.413h.405c.966 0 1.751-.785 1.751-1.75v-2.718c0-.966-.785-1.751-1.75-1.751zm-9.779 14.436a.191.191 0 01-.188.188h-2.715a.191.191 0 01-.189-.188v-5.94a.781.781 0 00-.51-.732 5.39 5.39 0 01-3.51-5.028 5.37 5.37 0 012.529-4.54c-.003.101-.01.198-.014.248a2.71 2.71 0 00-.01.204v3.687a3.233 3.233 0 003.01 3.218.81.81 0 00.103 0 3.231 3.231 0 003.008-3.218v-3.687c0-.062-.005-.124-.01-.203a5.144 5.144 0 01-.014-.25 5.37 5.37 0 012.527 4.54 5.39 5.39 0 01-3.507 5.029.781.781 0 00-.51.732v5.94zm9.968-9.968c0 .1-.088.189-.189.189h-1.012a.781.781 0 00-.762.609 9.77 9.77 0 01-1.273 3.072.781.781 0 00.108.97l.717.717a.188.188 0 01.054.133c0 .03-.007.087-.054.133l-1.924 1.922a.182.182 0 01-.131.053.183.183 0 01-.133-.055l-.718-.717a.781.781 0 00-.97-.108 9.69 9.69 0 01-2.118 1.006v-3.376c2.424-1.128 4.017-3.586 4.017-6.28a6.93 6.93 0 00-3.033-5.718c-.291-.2-1.176-.804-1.95-.359-.76.438-.684 1.463-.651 1.901l.006.088v3.687c0 .856-.654 1.573-1.498 1.655-.845-.083-1.5-.8-1.5-1.655v-3.681l.007-.094c.032-.438.109-1.462-.65-1.9-.774-.446-1.66.159-1.952.358a6.93 6.93 0 00-3.033 5.718c0 2.694 1.595 5.153 4.02 6.28v3.376a9.744 9.744 0 01-2.121-1.006.78.78 0 00-.97.108l-.72.719a.181.181 0 01-.13.054.183.183 0 01-.133-.056l-1.92-1.92a.188.188 0 01-.054-.133c0-.03.007-.086.054-.133l.717-.717a.781.781 0 00.108-.97 9.722 9.722 0 01-1.273-3.071.781.781 0 00-.763-.61h-1.014a.194.194 0 01-.188-.189v-2.717a.19.19 0 01.188-.189h1.014a.781.781 0 00.763-.61 9.718 9.718 0 011.273-3.071.781.781 0 00-.108-.97l-.718-.718a.188.188 0 01-.053-.133c0-.03.007-.086.054-.133l1.921-1.921a.182.182 0 01.132-.054c.035 0 .087.01.133.055l.717.718a.781.781 0 00.97.108c.95-.6 1.984-1.03 3.074-1.276a.781.781 0 00.61-.762v-1.012a.19.19 0 01.188-.188h2.715c.102 0 .189.086.189.188v1.012a.78.78 0 00.609.762 9.726 9.726 0 013.07 1.276.781.781 0 00.971-.108l.72-.719a.181.181 0 01.131-.054c.036 0 .087.01.133.056l1.922 1.92a.187.187 0 01.054.133c0 .03-.007.086-.054.133l-.717.717a.781.781 0 00-.108.97 9.77 9.77 0 011.273 3.072c.08.356.397.61.762.61h1.012a.19.19 0 01.189.188v2.717zM65.905 72.4a.781.781 0 001.104 1.104l.003-.002a.78.78 0 00-.002-1.104.783.783 0 00-1.105.001z" fill="#222A3F"/><path fill-rule="evenodd" clip-rule="evenodd" d="M40.035 65.52h2.733c.278 0 .512.234.512.511v8.2c0 .277-.234.51-.512.51h-2.685a.785.785 0 10.05 1.562h2.635a2.076 2.076 0 001.97-1.42h1.757c.155 0 .155 0 .336.05l.248.069 8.086 2.163c.351.095.674.188.985.279l.014.004c1.036.3 1.907.552 2.814.552 1.026 0 2.099-.322 3.51-1.262l.008-.007.012-.007 1.543-1.101a.781.781 0 10-.907-1.272l-1.533 1.093c-2.047 1.362-2.917 1.11-5.012.503l-.005-.001c-.32-.093-.653-.19-1.023-.29l-8.086-2.163a7.11 7.11 0 01-.23-.064 2.177 2.177 0 00-.76-.109h-1.652v-6.377h.878l.044-.002c.655-.028.838-.046 1.588-.342 2.901-1.145 5.14-1.28 8.002 1.413l.038.036c.49.46.771.647 1.601.647h4.25c.498 0 .933.277 1.16.685l.002.004.006.01a1.327 1.327 0 01-1.168 1.954h-6.887a.781.781 0 000 1.561h6.887a2.892 2.892 0 002.82-3.517l6.173-3.17c.585-.3 1.384-.268 1.78.376.351.567.158 1.321-.448 1.754L68.86 70.28a.781.781 0 00.906 1.273l2.71-1.929c1.285-.917 1.66-2.571.87-3.847-.775-1.26-2.419-1.666-3.823-.945l-6.202 3.185a2.88 2.88 0 00-2.077-.885h-4.25c-.238 0-.296-.018-.3-.02a2.294 2.294 0 01-.23-.202l-.04-.037c-3.438-3.236-6.342-3.031-9.644-1.728-.535.211-.545.212-1.082.235h-.96a2.078 2.078 0 00-1.97-1.423h-2.63a.784.784 0 10-.103 1.563z" fill="#222A3F"/><defs><filter id="filter0_d" x=".029" y=".547" width="117.942" height="126.906" filterUnits="userSpaceOnUse" color-interpolation-filters="sRGB"><feFlood flood-opacity="0" result="BackgroundImageFix"/><feColorMatrix in="SourceAlpha" values="0 0 0 0 0 0 0 0 0 0 0 0 0 0 0 0 0 0 127 0"/><feOffset dy="6"/><feGaussianBlur stdDeviation="10"/><feColorMatrix values="0 0 0 0 0.237802 0 0 0 0 0.273754 0 0 0 0 0.4625 0 0 0 0.08 0"/><feBlend in2="BackgroundImageFix" result="effect1_dropShadow"/><feBlend in="SourceGraphic" in2="effect1_dropShadow" result="shape"/></filter></defs></svg>