<svg width="118" height="128" fill="none" xmlns="http://www.w3.org/2000/svg"><g filter="url(#filter0_d)"><path d="M54 15.887a10 10 0 0110 0l28.971 16.726a10 10 0 015 8.66v33.453a10 10 0 01-5 8.66L64 100.114a9.997 9.997 0 01-10 0L25.029 83.387a10 10 0 01-5-8.66V41.273a10 10 0 015-8.66L54 15.887z" fill="#fff"/></g><path d="M59.284 75.966c-3.46-.102-6.341-1.572-8.483-4.437-1.199-1.606-2.414-3.204-3.52-4.87-1.776-2.652-3.246-5.457-4.496-8.39-.552-1.309-1.147-2.61-1.487-4.003-.417-1.717-.4-3.434.042-5.134.646-2.465 2.015-4.437 4.072-5.933.799-.578 1.64-1.054 2.652-1.122 1.674-.11 3.043.476 3.97 1.87a34.772 34.772 0 012.014 3.493c.977 1.938.289 4.301-1.53 5.474-.655.425-1.335.8-2.015 1.19-.91.519-1.181 1.352-.73 2.295a56.167 56.167 0 004.836 8.339c.459.654 1.283.9 2.014.535.663-.323 1.292-.714 1.93-1.088 1.708-1.011 3.714-.85 5.219.45.297.256.552.57.756.902.604.994 1.182 2.006 1.76 3.017 1.224 2.16.535 4.735-1.607 6.01-1.436.858-3.638 1.436-5.397 1.402zm4.7-2.507c1.394-.731 2.04-2.525 1.369-3.876-.51-1.02-1.122-1.99-1.675-2.992-.527-.96-1.292-1.59-2.405-1.743a2.82 2.82 0 00-2.006.442 3805.62 3805.62 0 004.717 8.169z" fill="#D9D8E4" stroke="#222A3F" stroke-width=".3"/><path d="M51 53l-5-9 1-1 2-.5 2 1.5 3 5-.5 2-2.5 2zm12.5 21l-5-9 2-1 2 .5 4 5.5-.5 2-1 1.5-1.5.5z" fill="#5FA9FF"/><path d="M59.284 75.966c-3.46-.102-6.341-1.572-8.483-4.437-1.199-1.606-2.414-3.204-3.52-4.87-1.776-2.652-3.246-5.457-4.496-8.39-.552-1.309-1.147-2.61-1.487-4.003-.417-1.717-.4-3.434.042-5.134.646-2.465 2.015-4.437 4.072-5.933.799-.578 1.64-1.054 2.652-1.122 1.674-.11 3.043.476 3.97 1.87a34.772 34.772 0 012.014 3.493c.977 1.938.289 4.301-1.53 5.474-.655.425-1.335.8-2.015 1.19-.91.519-1.181 1.352-.73 2.295a56.167 56.167 0 004.836 8.339c.459.654 1.283.9 2.014.535.663-.323 1.292-.714 1.93-1.088 1.708-1.011 3.714-.85 5.219.45.297.256.552.57.756.902.604.994 1.182 2.006 1.76 3.017 1.224 2.16.535 4.735-1.607 6.01-1.436.858-3.638 1.436-5.397 1.402zm-7.676-23.961c.247-.196.468-.323.646-.502 1.037-1.08 1.258-2.405.553-3.731a40.948 40.948 0 00-1.828-3.12c-.867-1.334-2.754-1.717-4.114-.875-.824.51-1.58 1.088-2.218 1.827-2.236 2.593-2.89 5.55-1.972 8.832.323 1.139.824 2.235 1.283 3.332a52.76 52.76 0 003.196 6.298 57.265 57.265 0 004.905 7.013c.74.918 1.59 1.7 2.61 2.295 2.022 1.19 4.19 1.555 6.485 1.13.56-.102 1.105-.28 1.7-.442-1.598-2.762-3.145-5.448-4.71-8.151-.254.144-.475.263-.696.39-1.48.85-3.077.35-3.936-.892a58.431 58.431 0 01-4.896-8.483c-.714-1.53-.238-3.068 1.224-3.918l.63-.374c-.273-.468-.52-.91-.774-1.343-.578-1.012-1.173-2.015-1.743-3.026-.22-.391-.119-.774.213-.944.323-.17.68-.042.892.323.723 1.241 1.437 2.49 2.16 3.732.127.204.246.4.39.629zm12.376 21.454c1.394-.731 2.04-2.525 1.369-3.876-.51-1.02-1.122-1.99-1.675-2.992-.527-.96-1.292-1.59-2.405-1.743a2.82 2.82 0 00-2.006.442 3805.62 3805.62 0 004.717 8.169zM75 58.856c-.06 4.437-1.47 8.21-4.31 11.44a13.36 13.36 0 01-.586.621c-.297.306-.68.349-.943.12-.29-.256-.29-.63 0-.978.57-.68 1.181-1.335 1.7-2.057a14.797 14.797 0 002.635-6.452c.34-2.184.255-4.36-.298-6.502a15.376 15.376 0 00-2.89-5.797 15.316 15.316 0 00-6.85-4.947c-.919-.332-1.888-.519-2.84-.765-.433-.11-.663-.442-.544-.825.094-.297.383-.484.748-.425a16.886 16.886 0 019.01 4.547 16.359 16.359 0 013.239 4.37c1.02 1.989 1.615 4.097 1.844 6.307.068.501.068.994.085 1.343z" fill="#222A3F" stroke="#222A3F" stroke-width=".3"/><path d="M57.61 59.646H56.3c-.425-.008-.68-.23-.688-.637a13.4 13.4 0 01.017-1.547c.076-.91.884-1.573 1.92-1.632.562-.034.85-.255.834-.663-.017-.391-.315-.595-.867-.595-.468-.009-.927 0-1.394-.034-.264-.017-.442-.204-.493-.46-.06-.254.008-.492.23-.645a.734.734 0 01.39-.145c.595 0 1.199-.025 1.785.051 1.054.136 1.683.995 1.615 2.1-.06.884-.892 1.64-1.853 1.674h-.246c-.383.017-.604.204-.672.578-.025.136-.008.28-.025.425-.026.221.076.28.28.272a60.706 60.706 0 011.76 0c.476 0 .748.247.748.646-.009.4-.28.63-.765.63h-.034c-.408-.018-.816-.018-1.233-.018zm9.307-4.012c.45 0 .858-.077 1.224.017 1.003.238 1.538.969 1.572 2.031.017.408.009.808 0 1.216-.008.467-.272.756-.654.748-.374-.017-.612-.298-.612-.757 0-.39.008-.79 0-1.181-.009-.502-.332-.85-.765-.842-.434.009-.74.332-.757.825-.017.484.009.977-.042 1.453a.585.585 0 01-.995.34.755.755 0 01-.22-.501 357.205 357.205 0 01-.01-5.227c0-.409.23-.655.596-.672.365-.017.629.195.654.603.034.528.017 1.055.017 1.582-.008.119-.008.246-.008.365zm-2.219.706v2.643a.617.617 0 01-.357.586c-.22.11-.459.11-.62-.06a1.066 1.066 0 01-.264-.569 15.126 15.126 0 01-.008-1.521c.008-.23-.077-.306-.298-.298-.39.009-.79.009-1.181-.025a1.403 1.403 0 01-1.3-1.335c-.026-.68-.026-1.36-.01-2.031.01-.434.247-.663.63-.655.374.009.603.247.612.68.008.561 0 1.114.008 1.675 0 .365.077.433.45.442.256 0 .51-.017.757 0s.34-.06.332-.323a32.445 32.445 0 010-1.82c.008-.39.22-.611.552-.645.408-.043.689.212.697.654.009.859 0 1.734 0 2.601zM58.74 42.697a.693.693 0 01-.672.646c-.365-.009-.688-.332-.671-.68.017-.332.357-.646.697-.63.357.018.654.324.646.664zM47.341 46.53c-.348 0-.646-.28-.646-.62 0-.34.298-.62.646-.62a.61.61 0 01.62.603.612.612 0 01-.62.637z" fill="#222A3F" stroke="#222A3F" stroke-width=".3"/><defs><filter id="filter0_d" x=".029" y=".547" width="117.942" height="126.906" filterUnits="userSpaceOnUse" color-interpolation-filters="sRGB"><feFlood flood-opacity="0" result="BackgroundImageFix"/><feColorMatrix in="SourceAlpha" values="0 0 0 0 0 0 0 0 0 0 0 0 0 0 0 0 0 0 127 0"/><feOffset dy="6"/><feGaussianBlur stdDeviation="10"/><feColorMatrix values="0 0 0 0 0.237802 0 0 0 0 0.273754 0 0 0 0 0.4625 0 0 0 0.08 0"/><feBlend in2="BackgroundImageFix" result="effect1_dropShadow"/><feBlend in="SourceGraphic" in2="effect1_dropShadow" result="shape"/></filter></defs></svg>